<svg id="Solid_Gra" height="512" viewBox="0 0 512 512" width="512" xmlns="http://www.w3.org/2000/svg" xmlns:xlink="http://www.w3.org/1999/xlink" data-name="Solid Gra"><linearGradient id="linear-gradient" gradientUnits="userSpaceOnUse" x1="447.792" x2="447.792" y1="-44.698" y2="536.307"><stop offset="0" stop-color="#ff91d2"/><stop offset=".262" stop-color="#f68bd9"/><stop offset=".688" stop-color="#de79ed"/><stop offset=".999" stop-color="#c86aff"/></linearGradient><linearGradient id="linear-gradient-2" x1="64.208" x2="64.208" xlink:href="#linear-gradient" y1="-44.698" y2="536.307"/><linearGradient id="linear-gradient-3" x1="351.333" x2="351.333" xlink:href="#linear-gradient" y1="-44.698" y2="536.307"/><linearGradient id="linear-gradient-4" x1="160.667" x2="160.667" xlink:href="#linear-gradient" y1="-44.698" y2="536.307"/><linearGradient id="linear-gradient-5" x1="170.66" x2="170.66" xlink:href="#linear-gradient" y1="-44.698" y2="536.307"/><linearGradient id="linear-gradient-6" x1="256" x2="256" xlink:href="#linear-gradient" y1="-44.698" y2="536.307"/><linearGradient id="linear-gradient-7" x1="341.34" x2="341.34" xlink:href="#linear-gradient" y1="-44.698" y2="536.307"/><linearGradient id="linear-gradient-11" x1="405.382" x2="405.382" xlink:href="#linear-gradient" y1="-44.698" y2="536.307"/><linearGradient id="linear-gradient-12" x1="106.618" x2="106.618" xlink:href="#linear-gradient" y1="-44.698" y2="536.307"/><g><path d="m447.792 88.416 11.387-20.821 20.821-11.387-20.821-11.387-11.387-20.821-11.387 20.821-20.821 11.387 20.821 11.387z" fill="url(#linear-gradient)"/><path d="m64.208 232.416 11.387-20.821 20.821-11.387-20.821-11.387-11.387-20.821-11.387 20.821-20.821 11.387 20.821 11.387z" fill="url(#linear-gradient-2)"/><g><path d="m309.051 369.013q-.684.569-1.367 1.123l10.722 38.989 76.576 15.315-1.542-5.54-31.3-16.447a8 8 0 0 1 -2.782-2.424l-22.992-32.1a47.595 47.595 0 0 1 -27.317 1.084z" fill="url(#linear-gradient-3)"/><path d="m175.633 367.927-22.993 32.1a8 8 0 0 1 -2.782 2.424l-31.298 16.449-1.542 5.543 76.576-15.315 10.722-38.988q-.685-.555-1.368-1.124a47.568 47.568 0 0 1 -27.315-1.086z" fill="url(#linear-gradient-4)"/><path d="m224 320.009a35.034 35.034 0 0 0 -10.128-24.887 8 8 0 0 1 -.808-10.325 35.279 35.279 0 0 0 6.665-20.819c0-13.787-7.808-26.226-19.893-31.691a8 8 0 0 1 -3.078-12.123 15.848 15.848 0 0 0 3.242-9.652 16 16 0 0 0 -24.428-13.6 8 8 0 0 1 -8.486-.021 31.642 31.642 0 0 0 -16.873-4.891c-18.137 0-32.893 15.478-32.893 34.5a35.515 35.515 0 0 0 9.275 24l27.069-36.218a8 8 0 0 1 8.769-2.854l1.442.445a28 28 0 0 1 17.425 37.883l-28.873 75.682 8.5-4.485a27.962 27.962 0 0 1 32.427 4.535l2.51 2.4a8 8 0 0 1 .971 10.436l-11.247 15.7a31.624 31.624 0 0 0 5.518.482c18.138.006 32.894-15.472 32.894-34.497z" fill="url(#linear-gradient-5)"/><path d="m121.445 185.69a47.779 47.779 0 0 1 22.292-9.248c7.2-22.3 19.453-39.722 36.485-51.829 19.242-13.677 44.737-20.613 75.778-20.613s56.536 6.936 75.778 20.613c17.032 12.107 29.287 29.526 36.485 51.829a47.78 47.78 0 0 1 22.291 9.247 67.583 67.583 0 0 0 -21.171-83.882l-2.33-1.7a188.815 188.815 0 0 0 -222.107 0l-2.328 1.7a67.588 67.588 0 0 0 -21.173 83.883z" fill="url(#linear-gradient-6)"/><path d="m348.123 211.874 1.444-.445a8 8 0 0 1 8.769 2.854l27.069 36.217a35.515 35.515 0 0 0 9.275-24c0-19.025-14.756-34.5-32.893-34.5a31.642 31.642 0 0 0 -16.873 4.892 8.008 8.008 0 0 1 -8.486.021 16 16 0 0 0 -21.186 23.252 8 8 0 0 1 -3.079 12.122c-12.084 5.465-19.892 17.9-19.892 31.691a35.279 35.279 0 0 0 6.665 20.819 8 8 0 0 1 -.808 10.325 35.032 35.032 0 0 0 -10.128 24.887c0 19.025 14.756 34.5 32.894 34.5a31.609 31.609 0 0 0 5.519-.481l-11.248-15.7a8 8 0 0 1 .971-10.436l2.509-2.4a27.963 27.963 0 0 1 32.429-4.536l8.5 4.485-28.874-75.685a28 28 0 0 1 17.422-37.882z" fill="url(#linear-gradient-7)"/><g fill="url(#linear-gradient-6)"><path d="m340 65.96c-11.312-19.423-45.208-33.96-84-33.96s-72.687 14.537-84 33.96a205.4 205.4 0 0 1 168 0z"/><path d="m310.431 423.847a8 8 0 0 1 -6.145-5.724l-10.486-38.132c-12.99 7.909-25.808 12.009-37.8 12.009s-24.81-4.1-37.8-12.008l-10.486 38.131a8 8 0 0 1 -6.145 5.724l-89.359 17.872-12.876 46.281h313.332l-12.876-46.281zm-86.431 16.905a25.917 25.917 0 0 1 -21.726 25.648l-80.959 13.494-2.63-15.784 80.959-13.493a9.967 9.967 0 0 0 8.356-9.865v-.752h16zm166.685 39.14-80.959-13.492a25.917 25.917 0 0 1 -21.726-25.648v-.752h16v.752a9.967 9.967 0 0 0 8.356 9.863l80.959 13.493z"/><path d="m292.856 361.362a51.582 51.582 0 0 1 -10.335-72.652 51.638 51.638 0 0 1 15.569-66.784 32.011 32.011 0 0 1 42.392-40.881 47.706 47.706 0 0 1 11.086-3.932c-6.238-16.918-15.987-30.165-29.06-39.459-16.48-11.715-38.856-17.654-66.508-17.654s-50.028 5.939-66.508 17.654c-13.073 9.294-22.822 22.541-29.06 39.459a47.706 47.706 0 0 1 11.086 3.932 32.025 32.025 0 0 1 42.392 40.882 51.637 51.637 0 0 1 15.569 66.783 51.581 51.581 0 0 1 -10.336 72.652c13.013 9.503 25.834 14.638 36.857 14.638s23.844-5.136 36.856-14.638z"/></g><path d="m436.792 400.907a7.807 7.807 0 0 1 -.367-.911l-29.7-89.153-.054-.165a51.784 51.784 0 0 0 -8.825-16.811l-.123-.16-48.416-64.781a12.039 12.039 0 0 0 -3.884 14.559c.057.128.11.257.16.388l36.509 95.7a8 8 0 0 1 -11.208 9.927l-27.278-14.4a11.981 11.981 0 0 0 -11.107-.052l38.764 54.116 32.68 17.174a8 8 0 0 1 3.986 4.937l21.344 76.725h48.993z" fill="url(#linear-gradient-11)"/><path d="m108.057 406.342 32.68-17.174 38.763-54.116a11.981 11.981 0 0 0 -11.107.052l-27.275 14.396a8 8 0 0 1 -11.208-9.927l36.509-95.7c.05-.131.1-.26.16-.388a12.039 12.039 0 0 0 -3.884-14.559l-48.416 64.781-.123.16a51.784 51.784 0 0 0 -8.825 16.811l-.054.165-29.702 89.157a7.807 7.807 0 0 1 -.367.911l-41.474 87.089h48.993l21.344-76.721a8 8 0 0 1 3.986-4.937z" fill="url(#linear-gradient-12)"/></g></g></svg>