<svg id="Capa_1" enable-background="new 0 0 501 501" height="512" viewBox="0 0 501 501" width="512" xmlns="http://www.w3.org/2000/svg"><g><path d="m389.517 457.768c-39.497 27.265-87.392 43.232-139.017 43.232s-99.52-15.967-139.017-43.232v-5.085c0-39.667-32.157-71.824-71.824-71.824-21.7-36.564-34.159-79.256-34.159-124.858 0-134.477 107.453-243.33 241.92-244.982 136.721-1.68 248.08 108.646 248.08 244.981 0 45.602-12.459 88.294-34.159 124.859-39.667 0-71.824 32.157-71.824 71.824z" fill="#003278"/><path d="m461.341 380.859c-18.122 30.535-42.688 56.796-71.824 76.909h-278.034c-29.137-20.113-53.703-46.374-71.824-76.909v-187.676h421.682z" fill="#f19b0b"/><path d="m461.341 380.859c-18.122 30.535-42.688 56.796-71.824 76.909h-278.034c-17.796-12.285-33.887-26.863-47.846-43.308v-206.277c0-8.284 6.716-15 15-15h382.704z" fill="#f5c02c"/><path d="m461.341 220.039-210.841 128.5-210.841-128.5v-33.5l204.147-183.968c3.804-3.428 9.584-3.428 13.389 0l204.147 183.967v33.501z" fill="#d98800"/><path d="m382.565 408.788-5.942 10.217c-.771 1.326-2.687 1.326-3.458 0l-5.942-10.217c-.174-.3-.424-.549-.723-.723l-10.217-5.942c-1.326-.771-1.326-2.687 0-3.458l10.217-5.942c.3-.174.549-.424.723-.723l5.942-10.217c.771-1.326 2.687-1.326 3.458 0l5.942 10.217c.174.3.424.549.723.723l10.217 5.942c1.326.771 1.326 2.687 0 3.458l-10.217 5.942c-.3.174-.549.423-.723.723z" fill="#fff5f5"/><path d="m417.171 60v182.354l-166.671 92.868-166.671-92.868v-182.354c0-5.523 4.477-10 10-10h313.341c5.524 0 10.001 4.477 10.001 10z" fill="#fadeb9"/><path d="m390.5 260-140 90-140-90v-180h280z" fill="#fff5f5"/><path d="m325.5 237.5c0 4.142-3.358 7.5-7.5 7.5h-135c-4.142 0-7.5-3.358-7.5-7.5s3.358-7.5 7.5-7.5h135c4.142 0 7.5 3.358 7.5 7.5zm-27.5 20h-95c-4.142 0-7.5 3.358-7.5 7.5s3.358 7.5 7.5 7.5h95c4.142 0 7.5-3.358 7.5-7.5s-3.358-7.5-7.5-7.5z" fill="#fadeb9"/><path d="m461.341 225.203-210.841 133.346-210.841-133.346s.154-23.14 0-28.672l211.668 133.906 210.014-132.905c.065 3.093 0 27.671 0 27.671z" fill="#fde803"/><path d="m253.364 103.141 13.675 32c.474 1.109 1.519 1.868 2.72 1.976l34.66 3.117c2.873.258 4.035 3.834 1.862 5.732l-26.208 22.894c-.908.793-1.307 2.022-1.039 3.197l7.746 33.926c.642 2.812-2.4 5.022-4.876 3.542l-29.872-17.851c-1.035-.619-2.327-.619-3.362 0l-29.872 17.851c-2.476 1.48-5.518-.73-4.876-3.542l7.746-33.926c.268-1.176-.131-2.404-1.039-3.197l-26.208-22.894c-2.172-1.898-1.01-5.473 1.862-5.732l34.66-3.117c1.201-.108 2.246-.867 2.72-1.976l13.675-32c1.132-2.652 4.892-2.652 6.026 0z" fill="#f19b0b"/><path d="m306.43 145.966-26.208 22.894c-.908.793-1.307 2.022-1.039 3.197l3.673 16.089c-26.108-5.916-47.047-25.45-54.953-50.742l3.188-.287c1.201-.108 2.246-.867 2.72-1.976l13.675-32c1.133-2.652 4.893-2.652 6.027 0l13.675 32c.474 1.109 1.519 1.868 2.72 1.976l34.66 3.117c2.872.259 4.034 3.834 1.862 5.732z" fill="#ecb700"/><path d="m373.118 288.219-23.965 7.783c-.609.198-1.087.675-1.284 1.284l-7.783 23.965c-.599 1.843-3.206 1.843-3.804 0l-7.783-23.965c-.198-.609-.675-1.087-1.284-1.284l-23.965-7.783c-1.843-.599-1.843-3.206 0-3.804l23.965-7.783c.609-.198 1.087-.675 1.284-1.284l7.783-23.965c.599-1.843 3.206-1.843 3.804 0l7.783 23.965c.198.609.675 1.087 1.284 1.284l23.965 7.783c1.843.598 1.843 3.206 0 3.804z" fill="#fdf385"/><path d="m332.718 367.123-13.379 7.781c-.3.174-.549.424-.723.723l-7.781 13.379c-.771 1.326-2.687 1.326-3.458 0l-7.781-13.379c-.174-.3-.424-.549-.723-.723l-13.379-7.781c-1.326-.771-1.326-2.687 0-3.458l13.379-7.781c.3-.174.549-.424.723-.723l7.781-13.379c.771-1.326 2.687-1.326 3.458 0l7.781 13.379c.174.3.424.549.723.723l13.379 7.781c1.326.771 1.326 2.687 0 3.458z" fill="#fadeb9"/><path d="m39.659 225.203s.154-23.14 0-28.672l23.978 15.169v28.668z" fill="#f1ca50"/></g></svg>